<?xml version="1.0" encoding="utf-8"?>
<!-- Generator: Adobe Illustrator 28.0.0, SVG Export Plug-In . SVG Version: 6.00 Build 0)  -->
<svg version="1.1" id="Ebene_1" xmlns="http://www.w3.org/2000/svg" xmlns:xlink="http://www.w3.org/1999/xlink" x="0px" y="0px"
	 viewBox="0 0 283.46 283.46" style="enable-background:new 0 0 283.46 283.46;" xml:space="preserve">
<style type="text/css">
	.st0{display:none;fill:#898989;}
	.st1{fill:#FF76FF;stroke:#000000;stroke-miterlimit:10;}
	.st2{fill:#FE0000;stroke:#000000;stroke-width:0.5;stroke-miterlimit:10;}
</style>
<rect class="st0" width="283.46" height="283.46"/>
<g>
	<g>
		<g>
			<path d="M75.9,109.94c5.07-0.72,18.68-0.19,18.24,13.95c-0.4,12.44-12.41,16.02-18.59,17.07c-0.79,6.33-0.48,9.81-0.44,9.8
				c0,0,1.34,1.57-2.56,1.74c-4.76,0.19-5.3-6.62-3.47-16.5c0.93-4.97,2.52-10.81,4.4-16.91c0.23-0.75,0.94-1.18,1.84-1.31
				c2.18-0.31,5.43,1.09,4.89,2.77c-1.61,5.29-2.97,10.71-4.01,16.25c14.41-0.68,14.32-24.66,0.67-22.71
				c-11.42,1.63-11.89,11.55-11.22,14.86c0.12,0.48-1.54,1.38-3.39,1.64c-1.04,0.15-2.12,0.08-3-0.34
				c-3.01-1.44-4.36-5.81-0.81-11.44C61.96,113.2,69.74,110.83,75.9,109.94z"/>
			<path d="M123.1,129.27c-0.32,5.88-2.19,13.79-8.44,14.69c-3.41,0.49-6.08-0.89-7.09-4.98c-1.45,4.39-4.16,8.13-9.07,8.23
				c-9.69,0.18-4.42-20.77-3.27-25.88c0.25-0.97,1.14-1.48,2.23-1.64c2.27-0.33,5.29,0.79,4.89,2.44c-1.1,4.5-3.64,15.81-0.18,15.32
				c3.08-0.44,4.64-5.12,5.33-8.02c0.5-4.31,1.64-8.16,1.78-8.84c0.25-0.97,1.14-1.48,2.23-1.64c2.27-0.33,5.29,0.78,4.89,2.44
				c-0.42,1.76-1.07,4.66-1.5,7.42c-0.33,3.13-0.19,5.75,1.61,5.49c3.13-0.45,4.54-4.12,5.14-7.01
				C123.18,127.12,123.1,129.27,123.1,129.27z"/>
			<path d="M140.28,127.31c-0.33,5.44-2.34,12.38-8.01,13.96c-1.8,0.59-6.93,1.6-7.78-4.33c-0.61,9.94,0.53,15.55,0.53,15.55
				s1.66,2.13-2.32,2.7c-7.39,1.06-7.04-18.14-2.66-37.52c0.2-0.96,1.14-1.48,2.23-1.64c2.23-0.32,5.24,0.79,4.85,2.44
				c0,0,0.01,0.05-0.03,0.11l-0.02,0.22c0.01,0.05-0.04,0.06-0.03,0.12c1.22-2.26,2.97-3.89,5.44-4.19
				C138.72,114,140.58,121.99,140.28,127.31z M130.47,119.25c-4.01,1.34-4.71,8.98-4.89,11.48c-0.16,1.89,1.08,4.14,3.24,3.72
				C134.2,133.46,135.93,117.48,130.47,119.25z"/>
			<path d="M161.08,124.34c-0.33,5.44-2.34,12.38-8.01,13.96c-1.8,0.59-6.93,1.6-7.78-4.33c-0.61,9.93,0.53,15.55,0.53,15.55
				s1.66,2.13-2.32,2.7c-7.39,1.06-7.04-18.14-2.66-37.52c0.2-0.96,1.14-1.48,2.23-1.64c2.23-0.32,5.24,0.79,4.85,2.44
				c0,0,0.01,0.05-0.03,0.11l-0.02,0.22c0.01,0.05-0.04,0.06-0.03,0.12c1.22-2.26,2.97-3.89,5.44-4.19
				C159.52,111.03,161.39,119.01,161.08,124.34z M151.28,116.28c-4.02,1.34-4.71,8.98-4.89,11.48c-0.17,1.89,1.08,4.14,3.24,3.72
				C155,130.49,156.73,114.51,151.28,116.28z"/>
			<path d="M189.87,119.67c-0.34,6.43-2.71,15.85-10.38,16.01c-3.96,0.07-5.46-3.34-5.74-7.71c-1.54,3.79-3.99,6.95-7.83,7.5
				c-9.76,1.39-8.67-24.45,3.46-26.19c1.37-0.2,4.79-0.36,6.36,2.23c0.19-0.69,0.3-1.31,0.42-1.77c0.25-0.97,1.14-1.48,2.23-1.64
				c2.23-0.32,5.24,0.79,4.85,2.44c-1.05,4.5-3.59,15.81-0.18,15.32c3.17-0.45,4.71-5.29,5.36-8.19
				C190,117.56,189.87,119.67,189.87,119.67z M173.89,120.2c0.41-1.88,1.29-7.23-1.29-7.35c-5.46-0.32-9.05,16.15-3.42,15.34
				C172.16,127.76,173.4,122.52,173.89,120.2z"/>
			<path d="M183.41,98.87c0.05-3.69,2.54-5.59,3.39-5.71c0.24-0.03,0.35,0.06,0.24,0.3c-0.81,1.77-0.5,3.92,0.2,4.1
				c3.6-0.51,1.27,4.17-0.81,4.46C184.38,102.3,183.39,100.41,183.41,98.87z"/>
			<path d="M200.61,107.91c-1.61,0.23-4.23,1.87-5.06,3.86c-2.67,7.04,11,3.54,10.36,13.92c-0.38,5.45-3.91,8.87-8.31,9.5
				c-5.92,0.85-7.24-2.65-7.26-5.84c-0.07-3.84,2.39-5.62,3.29-5.75c1.47-0.21-2.09,5.36,3.36,4.58c2.37-0.34,3.44-1.32,3.41-2.85
				c-0.06-4.83-11.38-2.83-11.53-11c-0.05-2.74,1.31-10.47,11.54-11.94c11.14-1.59,6,13.22,3.07,13.37
				c-2.93,0.14-3.85-3.58-2.49-3.55C202.33,112.17,204.4,107.36,200.61,107.91z"/>
		</g>
		<g>
			<path class="st1" d="M74.36,106.66c5.07-0.73,18.68-0.2,18.24,13.95c-0.4,12.44-12.41,16.02-18.59,17.07
				c-0.79,6.33-0.48,9.81-0.44,9.8c0,0,1.34,1.57-2.56,1.74c-4.76,0.19-5.3-6.61-3.47-16.5c0.93-4.97,2.52-10.81,4.4-16.91
				c0.23-0.75,0.94-1.18,1.84-1.31c2.18-0.31,5.43,1.09,4.89,2.77c-1.61,5.29-2.97,10.71-4.01,16.25
				c14.41-0.68,14.32-24.66,0.67-22.71c-11.42,1.63-11.89,11.55-11.22,14.86c0.12,0.48-1.54,1.38-3.39,1.64
				c-1.04,0.15-2.12,0.08-3-0.34c-3.01-1.44-4.36-5.81-0.81-11.44C60.42,109.92,68.2,107.54,74.36,106.66z"/>
			<path class="st1" d="M121.57,125.99c-0.32,5.88-2.19,13.79-8.44,14.69c-3.41,0.49-6.08-0.89-7.1-4.98
				c-1.45,4.39-4.16,8.13-9.07,8.23c-9.69,0.17-4.42-20.77-3.27-25.88c0.25-0.97,1.14-1.49,2.23-1.64c2.27-0.33,5.29,0.79,4.89,2.44
				c-1.1,4.5-3.64,15.81-0.18,15.32c3.08-0.44,4.64-5.12,5.33-8.02c0.5-4.31,1.64-8.16,1.78-8.84c0.25-0.97,1.14-1.48,2.23-1.64
				c2.27-0.33,5.29,0.79,4.89,2.44c-0.43,1.77-1.07,4.66-1.5,7.42c-0.33,3.13-0.19,5.75,1.61,5.49c3.13-0.45,4.54-4.12,5.14-7.01
				C121.64,123.83,121.57,125.99,121.57,125.99z"/>
			<path class="st1" d="M138.74,124.03c-0.33,5.44-2.34,12.38-8.01,13.96c-1.8,0.59-6.93,1.6-7.78-4.33
				c-0.61,9.93,0.53,15.55,0.53,15.55s1.66,2.13-2.32,2.7c-7.39,1.06-7.04-18.14-2.66-37.52c0.2-0.96,1.14-1.48,2.23-1.64
				c2.23-0.32,5.24,0.79,4.85,2.44c0,0,0.01,0.05-0.03,0.11l-0.02,0.22c0.01,0.05-0.04,0.06-0.03,0.12
				c1.22-2.27,2.97-3.89,5.44-4.19C137.18,110.72,139.04,118.7,138.74,124.03z M128.93,115.97c-4.01,1.34-4.71,8.98-4.89,11.48
				c-0.16,1.89,1.08,4.14,3.24,3.72C132.66,130.18,134.39,114.2,128.93,115.97z"/>
			<path class="st1" d="M159.54,121.05c-0.33,5.44-2.34,12.38-8.01,13.96c-1.8,0.59-6.93,1.6-7.78-4.33
				c-0.61,9.93,0.53,15.55,0.53,15.55s1.66,2.13-2.32,2.7c-7.39,1.06-7.04-18.14-2.66-37.52c0.2-0.96,1.14-1.48,2.23-1.64
				c2.23-0.32,5.24,0.79,4.85,2.44c0,0,0.01,0.05-0.03,0.11l-0.02,0.22c0.01,0.05-0.04,0.06-0.03,0.12
				c1.22-2.27,2.97-3.89,5.45-4.19C157.98,107.74,159.85,115.73,159.54,121.05z M149.74,112.99c-4.01,1.34-4.71,8.98-4.89,11.48
				c-0.17,1.89,1.08,4.14,3.24,3.72C153.46,127.2,155.19,111.22,149.74,112.99z"/>
			<path class="st1" d="M188.33,116.39c-0.34,6.43-2.71,15.85-10.38,16.01c-3.96,0.07-5.46-3.34-5.74-7.71
				c-1.54,3.79-3.99,6.95-7.82,7.5c-9.76,1.4-8.67-24.45,3.46-26.19c1.37-0.2,4.79-0.35,6.36,2.23c0.19-0.69,0.3-1.31,0.42-1.77
				c0.25-0.97,1.14-1.48,2.23-1.64c2.23-0.32,5.24,0.79,4.85,2.44c-1.05,4.5-3.59,15.81-0.18,15.32c3.17-0.45,4.71-5.29,5.36-8.19
				C188.46,114.28,188.33,116.39,188.33,116.39z M172.35,116.91c0.41-1.88,1.29-7.23-1.29-7.35c-5.46-0.32-9.05,16.15-3.42,15.34
				C170.62,124.47,171.86,119.24,172.35,116.91z"/>
			<path class="st1" d="M181.87,95.58c0.05-3.69,2.54-5.59,3.39-5.71c0.24-0.03,0.35,0.06,0.24,0.3c-0.81,1.77-0.5,3.92,0.2,4.1
				c3.6-0.52,1.27,4.17-0.81,4.46C182.85,99.02,181.85,97.12,181.87,95.58z"/>
			<path class="st1" d="M199.07,104.62c-1.61,0.23-4.23,1.87-5.06,3.86c-2.67,7.04,11,3.54,10.36,13.92
				c-0.38,5.45-3.91,8.86-8.31,9.49c-5.92,0.85-7.25-2.65-7.26-5.84c-0.07-3.84,2.39-5.62,3.29-5.75c1.47-0.21-2.09,5.36,3.36,4.58
				c2.37-0.34,3.44-1.32,3.41-2.85c-0.06-4.83-11.38-2.83-11.53-11c-0.05-2.74,1.31-10.48,11.54-11.94
				c11.14-1.59,6,13.22,3.07,13.37c-2.93,0.14-3.85-3.58-2.49-3.55C200.79,108.88,202.86,104.08,199.07,104.62z"/>
		</g>
	</g>
	<g>
		<g>
			<path d="M57.81,174.83c3.3-0.54,5.36,1.8,4.24,1.92c-5.07,0.52-5.98,6.26,1.71,5.16c1.9-0.27,9.66-2.96-1.69-9.2
				c-9.66-5.29-3.26-12.77,5.63-14.04c0.7-0.1,1.46-0.14,2.17-0.17c5.42-0.16,9.11,4.38,7.04,8.53c-0.75,1.51-2.05,2.17-3.33,2.36
				c-2.73,0.39-5.43-1.38-3.22-2.48c3.54-1.81,2.34-4.92-0.79-4.91c-3.08,0.03-9.77,3.72-0.75,8.35c3.18,1.6,6.29,4.16,6.71,7.11
				c0.61,4.26-2.71,8.22-12.43,9.61C49.37,189.03,46.48,176.79,57.81,174.83z"/>
			<path d="M89.52,172.04c-0.56,4.05-2.6,9.3-9.26,9.63c-5.32,0.28-5.51-4.27-4.37-9.02c0.38-1.77,0.81-3.47,1.38-5.67
				c-1.12,0.16-2.03,0.29-2.4,0.34c-1.16,0.17-0.98-1.54,0.84-1.79c0.5-0.07,1.2-0.17,2.03-0.29c0.48-1.68,1.09-3.61,1.87-6.08
				c0.21-0.61,1-0.96,1.95-1.1c1.94-0.28,4.6,0.3,4.2,1.35c-0.24,0.68-0.91,2.49-1.61,4.95c0.54-0.08,0.95-0.14,1.28-0.18
				c1.9-0.27,1.43,1.44,0.15,1.62c-0.29,0.04-0.99,0.14-1.9,0.27c-0.47,1.71-0.92,3.62-1.26,5.65c-0.44,2.52-0.29,4.18,1.28,3.95
				c2.73-0.39,3.96-2.99,4.63-4.83C89.71,170.71,89.52,172.04,89.52,172.04z"/>
			<path d="M88.21,169.38c-1.14,2.97-2.33,4.06-3.37,4.21c-1.98,0.28-3.31-2.81-2.1-2.88c2.96-1.11,3.9-3.4,4.79-6.02
				c-1.16-0.14-2.07-0.9-2.21-1.91c-0.18-1.27,0.99-2.5,2.56-2.73s2.46,0.71,2.65,1.98c0.07,0.47,0.04,0.88-0.07,1.28
				c0.68,0.31,1.94,0.61,4.06,0.07c0.39-0.23,0.87-0.4,1.45-0.48c1.94-0.28,4.44,0.32,4.08,1.37c-1.07,2.85-3.63,10.03-0.69,9.61
				c2.73-0.39,4.27-3.48,4.94-5.32c1.37-0.13,1.18,1.2,1.18,1.2c-0.52,4.04-2.91,10.03-9.57,10.4c-7.8,0.36-3.95-10.82-2.34-15.19
				c-1.15,0.2-2.49,0.29-3.76-0.04C89.36,166.21,88.52,168.62,88.21,169.38z"/>
			<path d="M119.52,167.85c-0.19,1.6-2.52,9.25-10.33,10.37c-4.14,0.59-10.61-0.74-8-9.29c0.38-1.18,2.69-7.19,8.27-7.99
				c2.61-0.37,5.23,0.28,5.68,3.43c0.42,2.95-1.79,4.91-5.22,5.4c-1.9,0.27-3.05-0.08-3.05-0.08c-0.59,2.1,0.86,4.22,4.62,3.68
				c3.43-0.49,5.34-3.36,6.63-6.79C118.14,166.51,119.67,166.29,119.52,167.85z M107.34,167.98c0.87,0.15,1.62,0.14,2.29,0.05
				c4.01-0.57,3.9-4.93,1.95-4.66C109.92,163.61,108.34,165.55,107.34,167.98z"/>
			<path d="M133.33,165.88c-0.19,1.6-2.52,9.25-10.33,10.37c-4.14,0.59-10.61-0.74-8-9.29c0.38-1.18,2.69-7.19,8.27-7.99
				c2.6-0.37,5.23,0.28,5.68,3.43c0.42,2.95-1.79,4.91-5.22,5.4c-1.9,0.27-3.05-0.08-3.05-0.08c-0.59,2.1,0.86,4.22,4.62,3.68
				c3.43-0.49,5.34-3.36,6.63-6.8C131.95,164.53,133.48,164.31,133.33,165.88z M121.15,166.01c0.87,0.15,1.63,0.14,2.29,0.05
				c4.01-0.57,3.89-4.93,1.95-4.66C123.73,161.64,122.15,163.57,121.15,166.01z"/>
			<path d="M142.41,164.47c-0.56,4.05-2.6,9.3-9.26,9.63c-5.32,0.28-5.51-4.27-4.37-9.02c0.38-1.77,0.81-3.47,1.38-5.67
				c-1.12,0.16-2.03,0.29-2.4,0.34c-1.16,0.17-0.98-1.54,0.84-1.79c0.5-0.07,1.2-0.17,2.03-0.29c0.48-1.68,1.09-3.61,1.87-6.08
				c0.21-0.61,1-0.96,1.95-1.1c1.94-0.28,4.6,0.3,4.2,1.35c-0.24,0.68-0.91,2.49-1.61,4.95c0.54-0.08,0.95-0.14,1.28-0.18
				c1.9-0.27,1.43,1.44,0.15,1.62c-0.29,0.04-0.99,0.14-1.9,0.27c-0.47,1.71-0.92,3.62-1.26,5.65c-0.44,2.52-0.29,4.18,1.28,3.95
				c2.73-0.39,3.96-2.99,4.63-4.83C142.6,163.15,142.41,164.47,142.41,164.47z"/>
		</g>
		<g>
			<path class="st2" d="M57.2,172.86c3.3-0.54,5.36,1.8,4.24,1.92c-5.07,0.52-5.98,6.26,1.71,5.16c1.9-0.27,9.66-2.96-1.69-9.2
				c-9.66-5.29-3.26-12.77,5.63-14.04c0.7-0.1,1.46-0.14,2.17-0.17c5.42-0.16,9.11,4.38,7.04,8.53c-0.75,1.51-2.05,2.17-3.33,2.36
				c-2.73,0.39-5.43-1.38-3.22-2.48c3.54-1.81,2.33-4.92-0.79-4.92c-3.08,0.03-9.77,3.72-0.75,8.35c3.18,1.6,6.29,4.16,6.71,7.11
				c0.61,4.26-2.71,8.22-12.43,9.61C48.77,187.07,45.88,174.82,57.2,172.86z"/>
			<path class="st2" d="M88.92,170.07c-0.56,4.05-2.6,9.3-9.26,9.63c-5.32,0.28-5.51-4.27-4.37-9.02c0.38-1.76,0.81-3.47,1.38-5.67
				c-1.12,0.16-2.03,0.29-2.4,0.34c-1.16,0.17-0.98-1.54,0.84-1.8c0.5-0.07,1.2-0.17,2.03-0.29c0.48-1.67,1.09-3.61,1.87-6.08
				c0.21-0.61,1-0.96,1.95-1.1c1.94-0.28,4.6,0.3,4.2,1.35c-0.24,0.68-0.91,2.49-1.61,4.95c0.54-0.08,0.95-0.14,1.28-0.18
				c1.9-0.27,1.43,1.44,0.15,1.62c-0.29,0.04-0.99,0.14-1.9,0.27c-0.47,1.71-0.92,3.62-1.26,5.65c-0.44,2.53-0.29,4.18,1.28,3.96
				c2.73-0.39,3.96-3,4.63-4.83C89.11,168.75,88.92,170.07,88.92,170.07z"/>
			<path class="st2" d="M87.61,167.42c-1.14,2.97-2.33,4.06-3.37,4.21c-1.99,0.28-3.31-2.81-2.1-2.88c2.96-1.11,3.9-3.4,4.79-6.02
				c-1.16-0.14-2.07-0.9-2.21-1.91c-0.18-1.27,0.99-2.5,2.56-2.73c1.57-0.22,2.46,0.71,2.65,1.98c0.07,0.47,0.04,0.88-0.07,1.27
				c0.68,0.31,1.94,0.61,4.06,0.07c0.39-0.23,0.87-0.4,1.45-0.48c1.94-0.28,4.44,0.32,4.08,1.37c-1.07,2.85-3.63,10.03-0.69,9.61
				c2.73-0.39,4.27-3.48,4.94-5.32c1.37-0.13,1.18,1.2,1.18,1.2c-0.52,4.04-2.91,10.03-9.57,10.4c-7.8,0.36-3.95-10.82-2.34-15.19
				c-1.15,0.2-2.49,0.29-3.76-0.04C88.76,164.25,87.92,166.66,87.61,167.42z"/>
			<path class="st2" d="M118.91,165.89c-0.19,1.6-2.52,9.25-10.33,10.37c-4.14,0.59-10.61-0.74-8-9.29
				c0.38-1.18,2.69-7.19,8.27-7.99c2.61-0.37,5.23,0.28,5.68,3.43c0.42,2.95-1.79,4.91-5.22,5.4c-1.9,0.27-3.05-0.08-3.05-0.08
				c-0.59,2.1,0.86,4.22,4.62,3.68c3.43-0.49,5.34-3.36,6.63-6.8C117.54,164.54,119.07,164.33,118.91,165.89z M106.74,166.02
				c0.87,0.15,1.62,0.14,2.29,0.05c4.01-0.57,3.89-4.93,1.95-4.66C109.32,161.65,107.74,163.58,106.74,166.02z"/>
			<path class="st2" d="M132.72,163.91c-0.19,1.6-2.52,9.25-10.33,10.37c-4.14,0.59-10.61-0.74-8-9.29
				c0.38-1.18,2.69-7.19,8.27-7.99c2.61-0.37,5.23,0.28,5.68,3.43c0.42,2.95-1.79,4.91-5.22,5.4c-1.9,0.27-3.05-0.08-3.05-0.08
				c-0.59,2.1,0.86,4.22,4.62,3.68c3.43-0.49,5.34-3.36,6.63-6.8C131.35,162.57,132.88,162.35,132.72,163.91z M120.55,164.05
				c0.87,0.15,1.62,0.14,2.29,0.05c4.01-0.57,3.9-4.93,1.95-4.66C123.13,159.67,121.55,161.61,120.55,164.05z"/>
			<path class="st2" d="M141.81,162.51c-0.56,4.05-2.6,9.3-9.26,9.63c-5.32,0.28-5.51-4.27-4.37-9.02c0.38-1.76,0.81-3.47,1.38-5.67
				c-1.12,0.16-2.03,0.29-2.4,0.34c-1.16,0.17-0.98-1.54,0.84-1.8c0.5-0.07,1.2-0.17,2.03-0.29c0.48-1.67,1.09-3.61,1.87-6.08
				c0.21-0.61,1-0.96,1.95-1.1c1.94-0.28,4.6,0.3,4.2,1.35c-0.24,0.69-0.91,2.49-1.61,4.95c0.54-0.08,0.95-0.14,1.28-0.18
				c1.9-0.27,1.43,1.44,0.15,1.62c-0.29,0.04-0.99,0.14-1.9,0.27c-0.47,1.71-0.92,3.62-1.26,5.65c-0.44,2.53-0.29,4.18,1.28,3.96
				c2.73-0.39,3.96-3,4.63-4.83C142,161.18,141.81,162.51,141.81,162.51z"/>
		</g>
		<g>
			<path d="M163.13,168.44c-9.32,1.25-10.69-2.78-10.14-5.28c0.34-1.47,1.09-2.04,1.67-2.14c0.37-0.06,0.65,0.06,0.72,0.25
				c0.34,0.73,1.29,1.36,2.62,1.72c-0.8-4.67,3-13.7,5.02-18.24c0.21-0.48,0.84-0.8,1.62-0.93c1.89-0.32,4.68,0.37,4.19,1.45
				c-2.54,5.76-4.71,11.87-5.04,17.9c4.97-0.95,10.35-4.69,10.95-13.82c0.33-4.76-1.99-9.17-8.75-8.02
				c-9.92,1.7-10.51,7.94-9.99,9.99c0.09,0.29-1.36,0.95-2.97,1.23c-0.91,0.16-1.83,0.18-2.59-0.04c-2.58-0.73-3.67-3.39-0.5-7.13
				c3.14-3.73,9.92-5.68,15.28-6.59c6.71-1.15,15.18,0.81,15.33,11.09C180.62,152.71,179.49,166.19,163.13,168.44z"/>
			<path d="M193.98,150.32c-0.41,4.06-2.6,10.1-9.29,10.62c-8.49,0.69-3.54-12.76-2.4-16.04c0.23-0.62,1.02-1,1.96-1.16
				c1.98-0.34,4.57,0.18,4.2,1.24c-0.95,2.87-3.44,10.14-0.43,9.62c2.72-0.46,4.17-3.6,4.75-5.45
				C194.09,149,193.98,150.32,193.98,150.32z M184.18,140.08c-0.22-1.3,0.88-2.55,2.48-2.83c1.57-0.27,3.02,0.55,3.24,1.85
				c0.22,1.3-0.88,2.55-2.44,2.82C185.85,142.2,184.4,141.38,184.18,140.08z"/>
			<path d="M215.48,146.65c-0.41,4.06-2.6,10.1-9.29,10.62c-5.6,0.44-5.51-4.21-4.43-9.58c0.33-1.53,0.07-2.8-1.37-2.58
				c-2.68,0.43-3.89,2.76-4.49,4.48c-1.18,5.77-0.07,8.02-0.03,8.01c0,0,1.44,1.23-2.06,1.83c-5.97,1.02-5.91-7.06-2.24-16.07
				c0.27-0.63,1.1-1.01,2.05-1.17c1.94-0.33,4.44,0.2,4.07,1.26c-0.12,0.29-0.23,0.62-0.31,0.91c1.48-1.49,3.36-2.67,5.64-2.96
				c4.86-0.59,5.98,2.24,5.21,5.46c-0.24,1.07-1.14,4.49,1.29,4.07c2.72-0.46,4.17-3.6,4.75-5.45
				C215.59,145.33,215.48,146.65,215.48,146.65z"/>
			<path d="M229.45,144.37c-0.15,1.61-2.26,9.32-10.05,10.65c-4.12,0.7-10.63-0.45-8.25-9.07c0.35-1.19,2.49-7.26,8.05-8.21
				c2.59-0.44,5.24,0.14,5.77,3.27c0.5,2.94-1.65,4.96-5.07,5.54c-1.89,0.32-3.05,0.01-3.05,0.01c-0.53,2.12,0.97,4.2,4.72,3.56
				c3.42-0.58,5.25-3.51,6.44-6.97C228.04,143.06,229.57,142.8,229.45,144.37z M217.28,144.83c0.87,0.12,1.63,0.1,2.29-0.01
				c3.99-0.68,3.76-5.04,1.82-4.71C219.74,140.39,218.22,142.37,217.28,144.83z"/>
			<path d="M227.85,141.69c-1.06,3-2.22,4.12-3.25,4.3c-1.98,0.34-3.39-2.72-2.18-2.82c2.93-1.19,3.81-3.5,4.63-6.15
				c-1.16-0.11-2.09-0.84-2.27-1.84c-0.22-1.27,0.92-2.53,2.49-2.8c1.57-0.27,2.48,0.64,2.7,1.91c0.08,0.47,0.07,0.88-0.04,1.28
				c0.69,0.29,1.96,0.56,4.06-0.04c0.38-0.24,0.86-0.42,1.44-0.52c1.94-0.33,4.44,0.2,4.11,1.26c-0.99,2.88-3.36,10.12-0.43,9.62
				c2.72-0.46,4.17-3.6,4.79-5.46c1.37-0.16,1.22,1.17,1.22,1.17c-0.41,4.06-2.64,10.1-9.28,10.65c-7.79,0.58-4.25-10.71-2.75-15.12
				c-1.15,0.23-2.48,0.36-3.76,0.06C228.91,138.48,228.14,140.91,227.85,141.69z"/>
		</g>
		<g>
			<path class="st2" d="M162.47,166.49c-9.32,1.25-10.69-2.78-10.14-5.28c0.34-1.47,1.09-2.04,1.67-2.14
				c0.37-0.06,0.65,0.06,0.72,0.25c0.34,0.73,1.29,1.36,2.62,1.72c-0.8-4.67,3-13.7,5.02-18.24c0.21-0.48,0.84-0.8,1.62-0.93
				c1.89-0.32,4.68,0.37,4.19,1.45c-2.53,5.76-4.71,11.87-5.04,17.9c4.97-0.95,10.35-4.69,10.95-13.82
				c0.33-4.76-1.99-9.17-8.75-8.02c-9.92,1.7-10.51,7.94-9.99,9.99c0.09,0.29-1.36,0.95-2.97,1.23c-0.91,0.16-1.83,0.18-2.59-0.04
				c-2.58-0.73-3.67-3.39-0.5-7.13c3.14-3.73,9.92-5.68,15.28-6.59c6.71-1.15,15.18,0.81,15.33,11.09
				C179.96,150.76,178.83,164.25,162.47,166.49z"/>
			<path class="st2" d="M193.33,148.38c-0.41,4.05-2.6,10.1-9.29,10.62c-8.49,0.69-3.54-12.76-2.4-16.04c0.23-0.62,1.02-1,1.96-1.16
				c1.98-0.34,4.57,0.18,4.2,1.24c-0.95,2.88-3.44,10.14-0.43,9.62c2.72-0.46,4.17-3.6,4.75-5.45
				C193.44,147.05,193.33,148.38,193.33,148.38z M183.52,138.13c-0.22-1.3,0.88-2.55,2.48-2.83c1.56-0.27,3.02,0.55,3.24,1.85
				c0.22,1.3-0.88,2.55-2.44,2.82C185.2,140.25,183.74,139.43,183.52,138.13z"/>
			<path class="st2" d="M214.82,144.7c-0.41,4.05-2.6,10.1-9.29,10.62c-5.6,0.44-5.51-4.21-4.43-9.58c0.33-1.53,0.07-2.79-1.37-2.58
				c-2.68,0.43-3.89,2.76-4.49,4.48c-1.18,5.76-0.07,8.02-0.03,8.01c0,0,1.44,1.23-2.06,1.83c-5.97,1.02-5.91-7.06-2.24-16.07
				c0.27-0.63,1.1-1.01,2.05-1.17c1.94-0.33,4.44,0.2,4.07,1.26c-0.12,0.29-0.23,0.62-0.31,0.91c1.48-1.49,3.36-2.67,5.64-2.96
				c4.86-0.59,5.98,2.24,5.21,5.46c-0.24,1.07-1.14,4.49,1.29,4.07c2.72-0.46,4.17-3.6,4.75-5.45
				C214.93,143.38,214.82,144.7,214.82,144.7z"/>
			<path class="st2" d="M228.8,142.42c-0.15,1.61-2.27,9.32-10.05,10.65c-4.12,0.7-10.63-0.45-8.25-9.07
				c0.35-1.19,2.49-7.26,8.05-8.21c2.59-0.44,5.24,0.14,5.77,3.27c0.5,2.94-1.65,4.95-5.07,5.54c-1.89,0.32-3.05,0.01-3.05,0.01
				c-0.53,2.12,0.97,4.2,4.72,3.56c3.42-0.58,5.25-3.51,6.44-6.97C227.39,141.11,228.91,140.85,228.8,142.42z M216.63,142.88
				c0.87,0.13,1.63,0.1,2.29-0.01c3.99-0.68,3.76-5.04,1.82-4.71C219.09,138.44,217.56,140.42,216.63,142.88z"/>
			<path class="st2" d="M227.19,139.74c-1.06,3-2.22,4.12-3.25,4.3c-1.98,0.34-3.39-2.72-2.18-2.82c2.93-1.19,3.81-3.5,4.63-6.15
				c-1.16-0.11-2.09-0.84-2.26-1.84c-0.22-1.27,0.92-2.53,2.49-2.8c1.57-0.27,2.48,0.64,2.7,1.91c0.08,0.47,0.07,0.88-0.04,1.28
				c0.69,0.29,1.96,0.56,4.06-0.04c0.38-0.24,0.86-0.42,1.44-0.52c1.93-0.33,4.44,0.2,4.11,1.26c-0.99,2.88-3.36,10.12-0.43,9.62
				c2.72-0.46,4.17-3.6,4.79-5.46c1.37-0.17,1.22,1.17,1.22,1.17c-0.41,4.05-2.64,10.1-9.29,10.65c-7.79,0.57-4.25-10.71-2.75-15.12
				c-1.15,0.23-2.48,0.36-3.76,0.06C228.25,136.54,227.48,138.97,227.19,139.74z"/>
		</g>
	</g>
</g>
<g>
</g>
<g>
</g>
<g>
</g>
<g>
</g>
<g>
</g>
<g>
</g>
</svg>
